HIERARCHY
ROOT Hips
{
     OFFSET 16.75390 94.58540 -5.81028
     CHANNELS 6 Xposition Yposition Zposition Zrotation Xrotation Yrotation
     JOINT Spine
     {
          OFFSET -0.00000 11.89050 -0.00000
          CHANNELS 3 Zrotation Xrotation Yrotation
          JOINT Spine1
          {
               OFFSET -0.00000 25.65740 0.12766
               CHANNELS 3 Zrotation Xrotation Yrotation
               JOINT HEad
               {
                    OFFSET -0.00000 8.73416 0.01134
                    CHANNELS 3 Zrotation Xrotation Yrotation
                    End Site
                    {
                         OFFSET -0.29000 12.77420 2.51395
                    }
               }
               JOINT LeftShoulder1
               {
                    OFFSET 8.99000 -0.36225 -0.22000
                    CHANNELS 3 Zrotation Xrotation Yrotation
                    JOINT LeftArm
                    {
                         OFFSET 10.28270 -0.00338 0.32212
                         CHANNELS 3 Zrotation Xrotation Yrotation
                         JOINT LeftForeArm
                         {
                              OFFSET 32.76690 0.09914 -1.42434
                              CHANNELS 3 Zrotation Xrotation Yrotation
                              JOINT LeftHand
                              {
                                   OFFSET 27.56430 0.08536 1.02216
                                   CHANNELS 3 Zrotation Xrotation Yrotation
                                   End Site
                                   {
                                        OFFSET 16.74430 -0.60000 1.50291
                                   }
                              }
                         }
                    }
               }
               JOINT RightShoulder
               {
                    OFFSET -8.99000 -0.36225 -0.22000
                    CHANNELS 3 Zrotation Xrotation Yrotation
                    JOINT RightArm
                    {
                         OFFSET -10.28270 -0.00338 0.32212
                         CHANNELS 3 Zrotation Xrotation Yrotation
                         JOINT RightForeArm
                         {
                              OFFSET -32.89710 0.09914 -1.42434
                              CHANNELS 3 Zrotation Xrotation Yrotation
                              JOINT RightHand
                              {
                                   OFFSET -27.49210 0.08536 1.02216
                                   CHANNELS 3 Zrotation Xrotation Yrotation
                                   End Site
                                   {
                                        OFFSET -16.63120 -0.60000 1.50291
                                   }
                              }
                         }
                    }
               }
          }
     }
     JOINT LeftUpLeg
     {
          OFFSET 8.94580 -8.66707 0.10165
          CHANNELS 3 Zrotation Xrotation Yrotation
          JOINT LeftLeg
          {
               OFFSET 0.00000 -44.42270 1.37270
               CHANNELS 3 Zrotation Xrotation Yrotation
               JOINT LeftFoot
               {
                    OFFSET -0.25355 -42.09240 -1.46059
                    CHANNELS 3 Zrotation Xrotation Yrotation
                    JOINT LeftToes
                    {
                         OFFSET -0.04000 -4.41509 8.49910
                         CHANNELS 3 Zrotation Xrotation Yrotation
                         End Site
                         {
                              OFFSET 0.08000 -0.04745 9.77979
                         }
                    }
               }
          }
     }
     JOINT RightUpLeg
     {
          OFFSET -8.94580 -8.66707 0.10165
          CHANNELS 3 Zrotation Xrotation Yrotation
          JOINT RightLeg
          {
               OFFSET -0.00000 -44.42270 1.37270
               CHANNELS 3 Zrotation Xrotation Yrotation
               JOINT RightFoot
               {
                    OFFSET 0.25355 -42.09240 -1.46059
                    CHANNELS 3 Zrotation Xrotation Yrotation
                    JOINT RightToes
                    {
                         OFFSET 0.04000 -4.41509 8.49910
                         CHANNELS 3 Zrotation Xrotation Yrotation
                         End Site
                         {
                              OFFSET -0.08000 -0.13745 9.77979
                         }
                    }
               }
          }
     }
}
MOTION
Frames: 8
Frame Time: 0.01667
15.85900 93.35900 29.23720 17.29900 -61.89870 63.60540 1.92596 18.22200 1.66424 13.43580 36.31800 -6.07195 20.58690 15.47160 -21.27450 -0.00000 0.00000 -0.00000 -59.29090 11.68580 -54.36010 -29.18160 9.83572 -84.29630 14.75710 7.76984 -13.03920 44.75930 -0.35971 -2.87064 39.95460 -40.45810 47.99270 -5.48514 -12.42030 49.16050 12.17050 11.48820 9.89609 44.17760 20.25410 -33.06490 -29.87060 19.94470 81.34080 -7.32165 -5.10096 0.17966 3.79882 -24.57060 -71.50340 -82.82200 -33.34980 -36.25490 46.60640 9.58879 -53.92390 -11.51900 -0.34597 0.61573 1.44706 39.96900 -8.83225 
16.01660 92.90990 28.21190 13.41490 -62.13140 59.12410 2.11472 18.01820 2.04434 13.31460 35.60750 -5.43232 20.15050 15.79360 -20.50470 -0.00000 0.00000 -0.00000 -59.52530 11.59700 -54.09770 -28.20420 9.18587 -84.44710 15.14450 7.74694 -12.75370 44.33090 -0.31561 -2.78520 41.25660 -40.24700 49.52860 -5.47969 -12.10320 49.35090 11.92270 11.42900 9.63797 43.25970 19.08570 -32.54940 -30.41260 20.28900 83.96760 -7.71998 -5.94553 0.13654 4.44465 -23.22880 -70.27840 -77.08500 -30.79900 -39.10210 51.45020 8.73300 -47.69950 -21.00780 15.14630 4.18978 -2.25894 25.30850 1.51312 
16.07210 92.74700 27.27070 9.01448 -62.05830 54.06900 3.28246 18.39080 2.25437 13.31840 35.18130 -5.25647 19.88250 15.76180 -19.69400 -0.00000 0.00000 -0.00000 -59.82060 11.16030 -53.90440 -28.19830 8.93282 -84.44150 15.78390 7.67571 -12.56370 43.89130 -0.28003 -2.71701 42.96330 -39.76480 51.38540 -5.38772 -11.20910 49.75570 11.83990 11.38500 9.32828 42.74540 18.17130 -32.45240 -30.80790 19.50770 86.41400 -7.64772 -6.31703 0.11275 4.86610 -22.30210 -69.22640 -73.24470 -32.17730 -45.18980 55.48100 17.70120 -45.97480 -24.13780 24.57550 6.91643 -2.92854 13.81180 7.82032 
15.95240 92.75710 26.31650 5.17453 -61.72980 49.74870 4.78755 19.05220 2.22231 13.21880 35.06530 -5.49016 19.86460 15.27590 -19.07960 -0.00000 0.00000 -0.00000 -59.97820 10.46260 -54.05560 -29.06010 9.04590 -84.27830 16.39160 7.58983 -12.52700 43.53880 -0.24904 -2.65583 44.79590 -39.20630 53.28230 -4.98581 -9.92740 50.50700 11.89170 11.36760 9.11377 42.63730 17.43620 -32.45860 -31.09120 17.99030 88.22910 -7.08568 -6.38769 0.10214 5.07791 -21.81330 -68.42150 -68.67960 -33.81290 -50.36750 58.15630 27.50230 -46.84060 -26.00500 30.97800 9.01439 -2.53431 7.63249 10.02780 
15.68180 92.93420 25.41940 2.50283 -61.15640 46.95120 6.22470 19.71070 1.85414 12.85710 35.16030 -6.00603 20.16440 14.43410 -18.81570 -0.00000 0.00000 -0.00000 -59.83620 9.69039 -54.77270 -30.15950 9.32137 -84.02230 16.67130 7.53349 -12.62900 43.32650 -0.20823 -2.56911 46.45790 -38.74100 54.94710 -4.23592 -8.45541 51.66790 11.98790 11.37210 9.05255 42.83460 16.90160 -32.39690 -31.24260 15.84620 89.17120 -6.14748 -6.29147 0.09626 5.18461 -21.55660 -67.85820 -64.06660 -35.31210 -54.58790 60.19710 37.96410 -49.21710 -27.24670 35.03310 10.50020 -2.04581 5.29314 9.42709 
15.36920 93.27200 24.69260 1.08724 -60.32360 45.83990 7.37926 20.14240 1.14869 12.21360 35.29320 -6.68523 20.74630 13.40960 -18.93630 -0.00000 0.00000 -0.00000 -59.27770 9.05977 -56.13770 -30.70710 9.48783 -83.78510 16.50450 7.53752 -12.77910 43.22000 -0.14514 -2.43002 47.76640 -38.47940 56.17570 -3.31991 -6.88183 53.22890 12.06760 11.38350 9.07194 43.10810 16.54250 -32.18410 -31.24910 13.25520 89.29270 -5.08264 -6.11724 0.09018 5.29052 -21.29780 -67.49030 -59.93150 -36.51870 -58.17230 62.28500 48.94030 -52.04430 -27.52560 37.71170 11.31610 -1.84807 5.89804 7.95098 
15.14370 93.70380 24.17450 0.61085 -59.19970 46.08970 8.10921 20.21750 0.20548 11.38150 35.29390 -7.43324 21.44400 12.29800 -19.34800 -0.00000 0.00000 -0.00000 -58.24100 8.72424 -58.10950 -30.23890 9.31217 -83.64030 15.94940 7.60825 -12.87890 43.12300 -0.07969 -2.28483 48.64820 -38.43790 56.88180 -2.40661 -5.22122 55.17600 12.11010 11.38240 9.01801 43.18070 16.19330 -31.78660 -31.16350 10.55420 88.84670 -4.15315 -5.94859 0.08271 5.46850 -20.86210 -67.22770 -56.42220 -37.53220 -61.57530 64.91470 60.28270 -54.89890 -26.11500 39.69000 11.22420 -2.16934 9.63190 7.05007 
15.10770 94.13060 23.85930 0.58583 -57.72870 47.12630 8.32160 19.91480 -0.82166 10.48630 35.04490 -8.18087 22.06080 11.11160 -19.86920 -0.00000 0.00000 -0.00000 -56.74230 8.73709 -60.55710 -28.88920 8.63573 -83.57050 15.09830 7.74422 -12.82960 42.96440 -0.05231 -2.22508 49.05440 -38.58000 57.10490 -1.47238 -3.48458 57.50160 12.11870 11.35430 8.75747 42.80710 15.60610 -31.22290 -31.09610 8.16060 88.11820 -3.59677 -5.89986 0.07559 5.77795 -20.09430 -66.90510 -53.45640 -38.59350 -65.18540 69.09520 71.81710 -58.81750 -22.41020 40.81810 9.86095 -3.02071 16.79750 6.70297 
